<svg width="88" height="150" viewBox="0 0 88 200" fill="none" xmlns="http://www.w3.org/2000/svg">
<path d="M52.2975 14.2969C52.2662 14.2926 52.2342 14.2902 52.2025 14.2863C52.1932 14.2856 52.1838 14.2844 52.1744 14.2828C50.6272 14.0863 49.06 13.9856 47.5123 13.9856H36.4103C34.1564 13.9856 31.9353 14.2567 29.7779 14.7844L15.6138 1.16796C13.9474 -0.433999 11.297 -0.382046 9.69505 1.28475C8.0927 2.95116 8.14504 5.60156 9.81184 7.20352L21.4091 18.3524C19.7431 19.4145 18.1982 20.6559 16.79 22.0547L7.65989 13.2789C5.99309 11.6766 3.34308 11.7293 1.74073 13.3957C0.138778 15.0621 0.191127 17.7125 1.85754 19.3145L11.7587 28.8321C9.63841 32.8262 8.5263 37.2676 8.5263 41.8653V60.5064V82.6767V162.173V195.813C8.5263 197.209 9.22239 198.513 10.3822 199.291C11.0818 199.759 11.8947 199.999 12.713 199.999C13.2509 199.999 13.7919 199.895 14.3037 199.685C25.781 194.967 33.4928 182.391 33.4928 168.389C33.4928 166.396 33.3365 164.419 33.0322 162.48C42.5408 158.712 50.7471 152.417 56.9198 144.099C63.9928 134.569 67.7315 123.24 67.7315 111.339C67.7315 98.9928 63.5545 86.9709 55.9432 77.308V75.9783C66.1643 74.2619 76.5495 66.8138 78.9495 57.1524H83.2417C85.5538 57.1524 87.428 55.2782 87.428 52.9661V49.4122C87.428 30.4926 69.1877 16.4531 52.2975 14.2969ZM16.899 188.255V164.856C19.3966 163.6 21.7591 162.062 23.9724 160.255C24.0298 160.454 24.0951 160.65 24.1482 160.851C24.7939 163.276 25.1209 165.812 25.1209 168.39C25.1205 176.344 21.9798 183.639 16.899 188.255ZM59.3596 111.34C59.3596 130.341 48.0354 147.142 30.7904 154.357C30.69 154.109 30.5881 153.862 30.4822 153.617C37.2463 145.083 40.9443 134.121 40.9443 122.425C40.9443 115.145 39.5232 108.177 36.7205 101.714C35.8002 99.5928 33.3346 98.6189 31.2142 99.5393C29.0931 100.459 28.1193 102.924 29.0392 105.045C31.383 110.451 32.5717 116.298 32.5717 122.425C32.5717 132.911 28.8744 143.03 22.4279 150.187C20.7205 152.084 18.872 153.732 16.8982 155.122V82.6775V60.5071V41.8661C16.8982 37.7856 18.1423 33.8821 20.4978 30.5743C22.8705 27.2379 26.1556 24.77 30.0025 23.4352C32.051 22.7207 34.2064 22.3586 36.4103 22.3586H47.5123C47.5315 22.3586 47.5514 22.3594 47.5709 22.3594V52.9681V68.7806C46.9432 68.2654 46.3076 67.7595 45.6572 67.272C43.8072 65.8853 41.1834 66.2607 39.7967 68.1107C38.41 69.9607 38.785 72.5845 40.6346 73.9712C43.5545 76.1603 46.215 78.6837 48.5432 81.4716C55.5186 89.8263 59.3596 100.434 59.3596 111.34ZM55.9436 67.4388V57.154H70.0873C67.7733 62.0036 61.8096 66.0243 55.9436 67.4388ZM75.2799 48.7817H55.944V23.5809C67.6225 26.9082 78.6698 36.7754 79.0464 48.7817H75.2799Z" fill="#26408b"/>
</svg>
