<svg width="34" height="76" viewBox="0 0 34 76" fill="none" xmlns="http://www.w3.org/2000/svg">
<path d="M19.6554 5.43291C19.6435 5.43128 19.6314 5.43039 19.6194 5.4289C19.6158 5.42861 19.6122 5.42816 19.6087 5.42757C19.0207 5.3529 18.4252 5.31461 17.8371 5.31461H13.6183C12.7618 5.31461 11.9178 5.41762 11.098 5.61816L5.71563 0.443917C5.08239 -0.164827 4.07524 -0.145085 3.4665 0.4883C2.85761 1.12154 2.8775 2.12869 3.51088 2.73743L7.91786 6.97399C7.28477 7.37759 6.69769 7.84933 6.16258 8.38089L2.69314 5.04608C2.05976 4.43719 1.05275 4.45723 0.443862 5.09047C-0.164882 5.7237 -0.144989 6.73085 0.488246 7.33959L4.2507 10.9563C3.44498 12.4741 3.02237 14.1618 3.02237 15.9089V22.9925V31.4172V61.6258V74.4091C3.02237 74.9397 3.28689 75.4351 3.7276 75.7305C3.99346 75.9087 4.30235 75.9998 4.61333 75.9998C4.81773 75.9998 5.02332 75.9603 5.21777 75.8803C9.57917 74.0876 12.5096 69.3085 12.5096 63.9879C12.5096 63.2306 12.4503 62.4793 12.3346 61.7423C15.9479 60.3107 19.0663 57.9186 21.4119 54.7579C24.0997 51.1362 25.5204 46.8313 25.5204 42.3089C25.5204 37.6173 23.9331 33.049 21.0408 29.3771V28.8718C24.9248 28.2196 28.8712 25.3893 29.7832 21.718H31.4142C32.2928 21.718 33.005 21.0058 33.005 20.1272V18.7767C33.005 11.5873 26.0737 6.25229 19.6554 5.43291ZM6.20399 71.537V62.6454C7.1531 62.1679 8.05085 61.5838 8.8919 60.8968C8.91372 60.9727 8.93851 61.0471 8.9587 61.1237C9.20407 62.045 9.32831 63.0088 9.32831 63.9884C9.32816 67.011 8.13472 69.7831 6.20399 71.537ZM22.339 42.3095C22.339 49.5298 18.0358 55.9139 11.4827 58.6557C11.4446 58.5616 11.4058 58.4675 11.3656 58.3744C13.936 55.1317 15.3412 50.9659 15.3412 46.5217C15.3412 43.7552 14.8012 41.1074 13.7362 38.6514C13.3865 37.8453 12.4495 37.4753 11.6438 37.825C10.8378 38.1744 10.4677 39.1114 10.8173 39.9174C11.7079 41.9713 12.1596 44.1933 12.1596 46.5217C12.1596 50.5063 10.7546 54.3516 8.30498 57.0713C7.65616 57.792 6.95375 58.4182 6.20369 58.9464V31.4175V22.9928V15.9092C6.20369 14.3586 6.67647 12.8753 7.57155 11.6183C8.47316 10.3505 9.72152 9.41268 11.1833 8.90547C11.9617 8.63397 12.7808 8.49637 13.6183 8.49637H17.8371C17.8443 8.49637 17.8519 8.49667 17.8593 8.49667V20.128V26.1367C17.6208 25.9409 17.3793 25.7487 17.1321 25.5635C16.4291 25.0365 15.4321 25.1791 14.9051 25.8821C14.3782 26.5851 14.5207 27.5822 15.2235 28.1092C16.3331 28.941 17.3441 29.8999 18.2288 30.9593C20.8794 34.1341 22.339 38.1651 22.339 42.3095ZM21.0409 25.6268V21.7186H26.4156C25.5362 23.5615 23.27 25.0893 21.0409 25.6268ZM28.3888 18.5371H21.0411V8.96083C25.4789 10.2252 29.6769 13.9748 29.82 18.5371H28.3888Z" fill="#E1E1E6"/>
</svg>
